<svg width="10" height="10" viewBox="0 0 10 10" fill="none" xmlns="http://www.w3.org/2000/svg">
<path d="M8.41043 9.6508C8.98145 9.6508 9.26834 8.9332 8.86586 8.51167L5.08476 4.5517C4.77874 4.2312 4.28051 4.23121 3.97449 4.55171L0.193392 8.51167C-0.209094 8.9332 0.0778015 9.6508 0.648813 9.6508C0.819795 9.6508 0.983715 9.57982 1.10423 9.4536L3.97449 6.44756C4.28051 6.12706 4.77874 6.12706 5.08476 6.44756L7.95501 9.4536C8.07553 9.57982 8.23945 9.6508 8.41043 9.6508Z" fill="#C4C4C4"/>
<path d="M0.64883 0.6008C0.0778181 0.6008 -0.209077 1.3184 0.193408 1.73993L3.9745 5.69989C4.28053 6.02039 4.77875 6.02039 5.08478 5.69989L8.86587 1.73993C9.26836 1.3184 8.98146 0.6008 8.41045 0.6008C8.23947 0.6008 8.07555 0.671777 7.95503 0.797998L5.08478 3.80403C4.77875 4.12453 4.28053 4.12453 3.9745 3.80403L1.10425 0.797998C0.983731 0.671777 0.819812 0.6008 0.64883 0.6008Z" fill="#C4C4C4"/>
</svg>
