<svg width="13" height="14" viewBox="0 0 13 14" fill="none" xmlns="http://www.w3.org/2000/svg">
<path d="M5.42198 1.2377C6.2236 0.600823 7.34714 0.575575 8.17338 1.16196L8.27501 1.2377L12.1184 4.31228C12.5413 4.63988 12.8007 5.12653 12.8449 5.65611L12.8512 5.78298V10.9014C12.8512 12.2206 11.8091 13.2936 10.5031 13.3631H9.24706C8.64678 13.3511 8.16139 12.884 8.11721 12.297L8.11089 12.208V10.4034C8.11089 10.2071 7.96509 10.0436 7.77005 10.0114L7.71324 10.0051H6.0273C5.82595 10.0114 5.66184 10.1566 5.63659 10.3459L5.63027 10.4034V12.2023C5.63027 12.2395 5.62333 12.2837 5.61765 12.3153L5.61134 12.3285L5.6044 12.3721C5.52928 12.9092 5.08744 13.3189 4.5383 13.3574L4.45624 13.3631H3.32639C2.00718 13.3631 0.927831 12.3285 0.858398 11.0276V5.78298C0.864079 5.24583 1.09825 4.74718 1.4896 4.40002L5.42198 1.2377ZM7.72586 1.92571C7.24615 1.54068 6.56445 1.52238 6.05949 1.85628L5.96418 1.92571L2.12648 5.01923C1.90619 5.18271 1.77364 5.42888 1.74208 5.68767L1.73514 5.78866V10.9014C1.73514 11.7409 2.39158 12.4289 3.2254 12.4794H4.45624C4.59511 12.4794 4.71503 12.3853 4.73334 12.2528L4.74659 12.1392L4.75291 12.107V10.4034C4.75291 9.72798 5.27049 9.17884 5.93325 9.12771H7.71324C8.38799 9.12771 8.93714 9.64593 8.98826 10.3087V12.208C8.98826 12.3405 9.08294 12.4548 9.20918 12.4794H10.3826C11.2284 12.4794 11.9164 11.8299 11.9669 11.0024L11.9738 10.9014V5.78866C11.9669 5.51788 11.8539 5.26476 11.6582 5.07604L11.5762 5.00597L7.72586 1.92571Z" fill="#C4C4C4"/>
</svg>
