<svg width="12" height="12" viewBox="0 0 12 12" fill="none" xmlns="http://www.w3.org/2000/svg">
<path d="M0.613432 5.87025C0.25592 6.22776 0.508016 6.83911 1.01361 6.84071L5.76335 6.85575C6.14777 6.85696 6.45971 6.54502 6.4585 6.1606L6.44346 1.41086C6.44186 0.905263 5.83051 0.653167 5.473 1.01068C5.36595 1.11773 5.30602 1.26306 5.3065 1.41446L5.31791 5.02002C5.31913 5.40444 5.00719 5.71638 4.62277 5.71516L1.01721 5.70375C0.865816 5.70327 0.720484 5.7632 0.613432 5.87025Z" fill="#C4C4C4"/>
<path d="M11.0963 6.67821C11.4538 6.3207 11.2017 5.70935 10.6961 5.70775L5.94636 5.69272C5.56194 5.6915 5.25 6.00344 5.25122 6.38786L5.26625 11.1376C5.26785 11.6432 5.8792 11.8953 6.23671 11.5378C6.34376 11.4307 6.40369 11.2854 6.40321 11.134L6.3918 7.52844C6.39058 7.14402 6.70252 6.83208 7.08694 6.8333L10.6925 6.84471C10.8439 6.84519 10.9892 6.78526 11.0963 6.67821Z" fill="#C4C4C4"/>
</svg>
